<?xml version="1.0" standalone="no"?><!DOCTYPE svg PUBLIC "-//W3C//DTD SVG 1.1//EN" "http://www.w3.org/Graphics/SVG/1.1/DTD/svg11.dtd"><svg t="1647749293644" class="icon" viewBox="0 0 1024 1024" version="1.1" xmlns="http://www.w3.org/2000/svg" p-id="967" xmlns:xlink="http://www.w3.org/1999/xlink" width="200" height="200"><defs><style type="text/css"></style></defs><path d="M732.37333334 694.50666667c-55.68 59.94666667-137.92 94.4-225.70666667 94.4-82.56 0-161.6-31.14666667-216.85333333-85.33333334-7.78666667-7.57333333-20.26666667-7.57333333-27.84 0.32-7.57333333 7.78666667-7.46666667 20.26666667 0.32 27.84 62.50666667 61.33333333 151.68 96.64 244.48 96.64 98.66666667 0 191.46666667-39.04 254.61333333-106.98666666 7.36-8 6.93333333-20.37333333-1.06666667-27.84-8.10666667-7.46666667-20.48-7.04-27.94666666 0.96zM195.41333334 551.57333333c10.88 0 19.73333333-8.85333333 19.73333333-19.73333333 0-30.4 6.29333333-59.52 17.38666667-86.72 1.81333333-2.45333333 2.98666667-5.33333333 3.52-8.42666667C279.04 341.97333333 384 274.77333333 506.66666667 274.77333333c160.74666667 0 291.52 115.30666667 291.52 257.06666667 0 10.88 8.85333333 19.73333333 19.73333333 19.73333333s19.73333333-8.85333333 19.73333334-19.73333333c0-34.02666667-6.72-66.66666667-18.66666667-97.17333333 27.30666667-181.86666667-33.17333333-267.73333333-35.73333333-271.25333334-5.01333333-6.93333333-13.97333333-9.81333333-22.18666667-7.04-39.78666667 13.22666667-122.02666667 89.17333333-131.30666667 97.70666667-0.74666667 0.64-1.06666667 1.49333333-1.6 2.24-37.65333333-13.33333333-78.50666667-20.90666667-121.49333333-20.90666667-42.02666667 0-82.13333333 7.36-119.14666667 20.16-0.42666667-0.42666667-0.64-1.06666667-1.06666666-1.49333333-9.28-8.64-91.52-84.48-131.30666667-97.70666667-8.21333333-2.77333333-17.06666667 0.10666667-22.18666667 7.04-2.56 3.52-61.76 87.78666667-36.37333333 266.02666667-13.22666667 32-20.8 66.45333333-20.8 102.50666667 0 10.77333333 8.74666667 19.62666667 19.62666667 19.62666666z m563.73333333-350.82666666c11.62666667 24.53333333 31.25333333 81.28 26.34666667 172.16-29.54666667-41.38666667-69.97333333-75.84-117.97333334-99.94666667 27.62666667-24.85333333 66.45333333-57.17333333 91.62666667-72.21333333z m-502.08 0c24.96 14.82666667 62.93333333 46.50666667 90.56 71.25333333-47.25333333 23.36-87.46666667 56.74666667-117.12 96.96-4.16-88.64 15.14666667-144.21333333 26.56-168.21333333zM288 583.89333333c-1.06666667-10.77333333-10.45333333-18.98666667-21.44-17.70666666l-154.98666666 14.72c-10.77333333 1.06666667-18.77333333 10.66666667-17.70666667 21.44 0.96 10.24 9.49333333 17.81333333 19.52 17.81333333 0.64 0 1.28 0 1.92-0.10666667l154.98666667-14.72c10.77333333-1.06666667 18.66666667-10.66666667 17.70666666-21.44zM309.65333334 642.34666667c-4.05333333-10.02666667-15.57333333-14.93333333-25.6-10.77333334l-151.04 61.54666667c-10.02666667 4.05333333-14.93333333 15.57333333-10.77333334 25.6 3.09333333 7.68 10.45333333 12.26666667 18.24 12.26666667 2.45333333 0 5.01333333-0.42666667 7.46666667-1.49333334l151.04-61.54666666c9.92-4.05333333 14.72-15.57333333 10.66666667-25.6zM908.8 580.90666667l-154.98666666-14.72c-10.98666667-1.28-20.48 6.93333333-21.44 17.70666666-1.06666667 10.77333333 6.93333333 20.48 17.70666666 21.44l154.98666667 14.72c0.64 0.10666667 1.28 0.10666667 1.92 0.10666667 10.02666667 0 18.56-7.68 19.52-17.81333333 1.06666667-10.77333333-6.82666667-20.37333333-17.70666667-21.44zM887.25333334 693.01333333L736.32 631.46666667c-10.02666667-4.16-21.54666667 0.64-25.6 10.77333333-4.16 10.02666667 0.74666667 21.54666667 10.77333334 25.6L872.53333334 729.38666667c2.45333333 0.96 4.90666667 1.49333333 7.46666666 1.49333333 7.78666667 0 15.14666667-4.58666667 18.24-12.26666667 3.94666667-10.02666667-0.85333333-21.54666667-10.98666666-25.6z" fill="#2c2c2c" p-id="968"></path><path d="M446.08 459.2c0-20.58666667-17.92-37.33333333-40.10666666-37.33333333-22.08 0-40.10666667 16.64-40.10666667 37.33333333 0 20.58666667 17.92 37.33333333 40.10666667 37.33333333s40.10666667-16.74666667 40.10666666-37.33333333zM658.13333334 459.2c0-20.58666667-17.92-37.33333333-40.10666667-37.33333333-22.08 0-40.10666667 16.64-40.10666667 37.33333333 0 20.58666667 17.92 37.33333333 40.10666667 37.33333333s40.10666667-16.74666667 40.10666667-37.33333333zM461.97333334 686.08c20.37333333 0 36.8-13.76 47.89333333-31.25333333 10.98666667 17.38666667 27.41333333 31.25333333 47.78666667 31.25333333 34.45333333 0 62.61333333-27.41333333 62.61333333-61.22666667 0-8.10666667-6.61333333-14.72-14.72-14.72-8.10666667 0-14.72 6.61333333-14.72 14.72 0 17.49333333-14.82666667 31.68-33.06666667 31.68-16 0-33.06666667-28.16-33.06666666-47.89333333 0-8.10666667-6.61333333-14.72-14.72-14.72-8.10666667 0-14.72 6.61333333-14.72 14.72 0 19.84-17.06666667 47.89333333-33.06666667 47.89333333-18.24 0-33.06666667-14.18666667-33.06666667-31.68 0-8.10666667-6.61333333-14.72-14.72-14.72s-14.72 6.61333333-14.72 14.72c-0.32 33.81333333 27.73333333 61.22666667 62.29333334 61.22666667z" fill="#2c2c2c" p-id="969"></path></svg>