<?xml version="1.0" encoding="utf-8"?>
<!-- Generator: Adobe Illustrator 24.0.1, SVG Export Plug-In . SVG Version: 6.00 Build 0)  -->
<svg version="1.1" id="图层_1" xmlns="http://www.w3.org/2000/svg" xmlns:xlink="http://www.w3.org/1999/xlink" x="0px" y="0px"
	 viewBox="0 0 200 200" style="enable-background:new 0 0 200 200;" xml:space="preserve">
<style type="text/css">
	.st0{fill:#F4E5B3;}
</style>
<path class="st0" d="M75.7,78.7h48.1v24H75.7L75.7,78.7z"/>
<path class="st0" d="M100,0C44.8,0,0,44.8,0,100s44.8,100,100,100s100-44.8,100-100S155.2,0,100,0z M55.6,50h88.7v10.6H55.6V50z
	 M134.8,69.1v43.7H64.7V69.1L134.8,69.1z M52.8,149.2v-10h24.1l-8.6-15.3l9.7-7.3l1.2,3.2c0.4,1,0.8,2.1,1.3,3.2
	c0.5,1.1,1,2.2,1.7,3.2c1.6,2.7,3,5.3,4.3,7.9c0.9,1.6,1.7,3.3,2.5,5h21.7c0.5-0.8,1.3-2.5,2.6-5s2.8-5.2,4.3-7.9
	c0.6-1.1,1.1-2.1,1.6-3.2s0.9-2.2,1.3-3.2l1.2-3.2l9.5,7.3l-8.6,15.3h24.1v10L52.8,149.2z"/>
</svg>
