<?xml version="1.0" standalone="no"?><!DOCTYPE svg PUBLIC "-//W3C//DTD SVG 1.1//EN" "http://www.w3.org/Graphics/SVG/1.1/DTD/svg11.dtd"><svg t="1622363174313" class="icon" viewBox="0 0 1024 1024" version="1.1" xmlns="http://www.w3.org/2000/svg" p-id="22415" xmlns:xlink="http://www.w3.org/1999/xlink" width="200" height="200"><defs><style type="text/css"></style></defs><path d="M157.582 0h708.836C952.888 0 1023.43 69.973 1024 156.444v711.112c-0.569 86.47-71.111 156.444-157.582 156.444H157.582C71.112 1024 0.57 954.027 0 867.556V156.444C0.569 69.974 71.111 0 157.582 0z" fill="#42BD56" p-id="22416"></path><path d="M522.809 874.382c-120.605 2.845-241.778-6.258-360.676-27.306-58.026-10.81-92.16-50.063-90.453-104.676 0-15.36 5.689-23.324 21.618-23.324h36.978c14.79 0 25.03 3.982 30.15 19.91 6.258 22.187 23.894 32.427 45.512 35.272 54.613 8.533 109.795 15.36 164.978 18.773 87.04 5.689 174.648 5.689 262.257 0 63.147-4.551 126.294-10.24 188.871-19.911 16.498-2.844 30.152-10.24 33.565-26.738 5.689-25.03 22.187-27.875 43.804-27.875 55.751 0.569 57.458 2.275 43.236 55.182-9.102 32.995-27.307 56.889-62.009 67.129-54.044 15.929-110.364 21.049-166.116 26.169-63.146 7.395-127.43 9.67-191.715 7.395z m1.138-724.195c99.555-6.258 208.782 5.689 317.44 23.324 64.284 10.24 95.004 26.169 108.657 102.4 3.414 19.911-4.55 28.445-23.893 27.876-11.947-0.57-25.031-2.276-37.547-2.276-13.653 1.707-26.737-7.395-30.15-20.48-7.396-18.773-25.032-31.858-44.943-32.995-128.569-17.067-257.707-27.876-387.413-21.05-74.525 3.983-149.618 14.223-224.142 21.618-17.636 0.57-32.996 11.947-39.254 28.445-6.826 21.618-21.049 26.738-40.96 25.031-9.102-1.138-17.635-1.138-26.738-1.138-17.066 0.57-23.324-7.395-23.324-24.462-1.138-45.511 29.582-85.333 74.524-95.573 120.605-26.738 243.485-34.134 377.743-30.72z m-97.85 363.52v106.95c-0.568 12.516-2.275 25.032-5.12 36.979-3.413 15.36-27.306 31.857 6.259 43.235 7.964 2.845 5.688 19.342 2.844 30.151-3.413 9.102-12.516 14.222-21.618 11.947-25.03-1.707-52.906 1.707-68.835-26.169-4.551-7.964-12.516-9.102-21.05-9.102-9.101 0-17.635-0.57-26.737-1.707-82.489-11.947-92.16-23.324-92.16-105.813V391.396c0-36.978 14.222-55.183 49.493-66.56 42.667-13.654 89.316-13.085 131.414 2.275 30.15 10.24 43.235 29.582 44.373 65.422 1.707 40.96 1.138 81.351 1.138 121.174z m-90.453-0.57V398.223c0-15.929-2.844-28.444-22.755-28.444-18.773 0-25.031 9.102-25.031 26.738v229.83c0 17.067 5.12 31.29 24.462 31.29s22.756-15.93 22.756-31.858c0.568-37.547 0-75.094 0.568-112.64z m373.76-64.853c11.378-35.84 21.05-63.715 28.445-91.59 5.689-21.618 16.498-30.152 39.253-30.152 68.836 0 59.734 3.982 40.96 55.751-16.498 45.511-30.15 91.591-49.493 135.396-19.342 43.804-13.085 91.022-15.36 136.533-0.569 15.36 6.258 35.271-13.085 42.098-19.91 7.396-43.804 2.844-65.422-2.276-5.12-1.137-6.826-7.964-7.395-13.084v-5.12c16.497-113.209-40.391-209.351-72.25-311.182-10.808-33.565-9.101-36.978 25.6-37.547 7.965 0 15.93 0.569 23.894 0 19.342-2.275 29.582 6.258 34.702 25.031 7.965 29.582 18.205 58.596 30.151 96.142z m243.485 66.56v152.463c0 20.48-5.689 30.72-29.013 31.289-58.596 1.137-58.596 1.706-58.596-57.458 0-93.298 0.569-187.165 0-281.031 0-25.6 9.102-34.134 34.133-33.565 52.907 1.138 52.907 0 52.907 51.77l0.569 136.532z m-395.947 0.57c0 52.337-0.569 105.244 0 157.582 0 17.635-5.689 23.893-22.755 25.03-65.423 4.552-65.423 5.12-65.423-60.302V365.227c0-35.84 2.276-38.116 37.547-38.685 5.12 0.57 10.809 0.57 15.929 0 25.6-2.844 34.702 7.965 34.133 33.565-1.706 51.769-0.569 103.537-0.569 154.737l1.138 0.57z m-402.204 51.2V670.72c0 19.342-7.965 26.738-26.738 27.307-55.751 2.275-55.751 2.844-55.751-54.045 0-58.595 0.569-117.19 0-176.355 0-21.618 7.395-30.151 29.582-30.151 63.716 0 53.476-3.983 53.476 51.2l-0.57 77.937z m0-196.836c0 43.804 0 43.804-39.254 43.804-43.804 0-43.804 0-43.235-44.373 0-42.098 0-42.098 43.235-42.098 38.685 0 38.685 0 39.254 42.667z" fill="#FFFFFF" p-id="22417"></path></svg>