<?xml version="1.0" encoding="utf-8"?>
<!-- Generator: Adobe Illustrator 24.0.1, SVG Export Plug-In . SVG Version: 6.00 Build 0)  -->
<svg version="1.1" id="图层_1" xmlns="http://www.w3.org/2000/svg" xmlns:xlink="http://www.w3.org/1999/xlink" x="0px" y="0px"
	 viewBox="0 0 200 200" style="enable-background:new 0 0 200 200;" xml:space="preserve">
<style type="text/css">
	.st0{fill:url(#SVGID_1_);}
	.st1{fill:#FFFFFF;}
</style>
<linearGradient id="SVGID_1_" gradientUnits="userSpaceOnUse" x1="29.4627" y1="29.4627" x2="170.5373" y2="170.5373">
	<stop  offset="0" style="stop-color:#FF5934"/>
	<stop  offset="1" style="stop-color:#FF0B34"/>
</linearGradient>
<path class="st0" d="M100,0.2L100,0.2c55.1,0,99.8,44.7,99.8,99.8v0c0,55.1-44.7,99.8-99.8,99.8h0c-55.1,0-99.8-44.7-99.8-99.8v0
	C0.2,44.9,44.9,0.2,100,0.2z"/>
<path class="st1" d="M153.4,109.7l-71.3,42c-7.5,4.4-17-1-17-9.7V58c0-8.7,9.5-14.2,17-9.7l71.3,42
	C160.8,94.6,160.8,105.4,153.4,109.7z"/>
</svg>
