<?xml version="1.0" standalone="no"?><!DOCTYPE svg PUBLIC "-//W3C//DTD SVG 1.1//EN" "http://www.w3.org/Graphics/SVG/1.1/DTD/svg11.dtd"><svg t="1622361795134" class="icon" viewBox="0 0 1105 1024" version="1.1" xmlns="http://www.w3.org/2000/svg" p-id="6524" xmlns:xlink="http://www.w3.org/1999/xlink" width="215.8203125" height="200"><defs><style type="text/css"></style></defs><path d="M298.988028 2.116262c34.813674-6.14359 69.627349 2.047863 102.39316 12.287179 71.675212 24.574358 141.302561 53.244443 210.92991 88.058118 114.680339 57.34017 225.264952 124.919655 329.705975 198.64273 45.05299 32.765811 90.105981 65.531622 126.967519 108.53675 20.478632 24.574358 38.909401 55.292306 34.813674 90.105981-4.095726 40.957264-32.765811 73.723075-59.388033 100.345297-114.680339 108.53675-239.599995 208.882047-374.758966 288.748712-69.627349 40.957264-141.302561 77.818802-221.169226 104.441023-49.148717 16.382906-100.345297 32.765811-153.58974 26.622222-30.717948-2.047863-61.435896-16.382906-81.914528-38.909401-18.430769-20.478632-28.670085-47.100854-34.813674-73.723076l2.047863-2.047863 67.579486-18.430769c96.249571-24.574358 190.451278-61.435896 280.557258-106.488886 94.201707-47.100854 188.403415-102.39316 274.413669-165.87692 28.670085-22.526495 59.388033-43.005127 73.723076-75.770938 12.287179-24.574358 8.191453-53.244443-4.095727-75.770939-16.382906-26.622222-38.909401-49.148717-65.531622-65.531622-28.670085-22.526495-59.388033-40.957264-92.153844-59.388033-61.435896-36.861538-122.871792-67.579486-188.403415-100.345297-75.770939-34.813674-149.494014-67.579486-227.312815-92.153844L194.547004 114.748738c4.095726-16.382906 8.191453-30.717948 14.335043-47.100854 18.430769-32.765811 53.244443-59.388033 90.105981-65.531622z" fill="#10ABF2" p-id="6525"></path><path d="M90.105981 120.892328c32.765811-16.382906 71.675212-12.287179 106.488886-6.14359-10.239316 47.100854-16.382906 96.249571-24.574358 143.350424 0 20.478632-2.047863 40.957264-6.14359 61.435896-4.095726 24.574358-2.047863 51.19658-6.143589 77.818802 0 28.670085-2.047863 59.388033-4.095727 90.105981-2.047863 28.670085-2.047863 57.34017-2.047863 88.058118 0 43.005127 0 88.058118 2.047863 131.063245 2.047863 65.531622 6.14359 131.063245 14.335043 196.594867v10.239316c-32.765811 4.095726-71.675212 8.191453-100.345297-12.287179s-38.909401-57.34017-47.100854-92.153844C8.191453 698.389751 0 587.805138 0 481.316251c2.047863-55.292306 6.14359-114.680339 14.335042-169.972646 6.14359-45.05299 14.335042-92.153844 30.717948-137.206834 8.191453-22.526495 22.526495-43.005127 45.052991-53.244443z" fill="#FF8F21" p-id="6526"></path><path d="M190.451278 114.748738h6.143589c34.813674 10.239316 71.675212 20.478632 106.488887 30.717948 79.866665 24.574358 155.637603 57.34017 229.360679 94.201707 63.483759 32.765811 126.967519 63.483759 188.403414 102.39316 30.717948 18.430769 61.435896 36.861538 94.201708 59.388033 24.574358 18.430769 49.148717 38.909401 65.531622 65.531623 14.335042 22.526495 16.382906 51.19658 4.095727 75.770938-16.382906 32.765811-47.100854 53.244443-75.770939 75.770939-88.058118 63.483759-178.164099 118.776066-276.461532 167.924782-90.105981 45.05299-184.307688 81.914528-282.605122 108.53675-22.526495 6.14359-45.05299 12.287179-69.627349 18.430769-4.095726 0-8.191453 2.047863-12.287179 2.047863 0-6.14359-2.047863-10.239316-2.047864-16.382905-8.191453-63.483759-12.287179-131.063245-14.335042-196.594868-2.047863-43.005127-2.047863-88.058118-2.047863-131.063245 0-28.670085-2.047863-57.34017 2.047863-88.058118 2.047863-28.670085 2.047863-59.388033 4.095726-90.10598 4.095726-24.574358 4.095726-51.19658 6.14359-75.770939l6.14359-61.435896c4.095726-45.05299 10.239316-94.201707 20.478632-141.302561m135.158971 169.972646c-12.287179 2.047863-18.430769 16.382906-18.430769 28.670085v378.854692c0 12.287179 2.047863 26.622222 14.335043 30.717948 12.287179 4.095726 24.574358 0 36.861537-8.191453l270.317943-184.307688c10.239316-8.191453 22.526495-20.478632 22.526495-34.813674s-12.287179-24.574358-24.574358-32.765812c-92.153844-57.34017-182.259825-116.728203-274.413669-174.068372-8.191453 0-18.430769-8.191453-26.622222-4.095726z" fill="#7DE621" p-id="6527"></path></svg>