<?xml version="1.0" encoding="utf-8"?>
<!-- Generator: Adobe Illustrator 24.0.1, SVG Export Plug-In . SVG Version: 6.00 Build 0)  -->
<svg version="1.1" id="图层_1" xmlns="http://www.w3.org/2000/svg" xmlns:xlink="http://www.w3.org/1999/xlink" x="0px" y="0px"
	 viewBox="0 0 200 200" style="enable-background:new 0 0 200 200;" xml:space="preserve">
<style type="text/css">
	.st0{fill:#FFFFFF;}
	.st1{fill:#06A7FF;}
	.st2{fill:#FF436A;}
</style>
<path class="st0" d="M100,0.2L100,0.2c55.1,0,99.8,44.7,99.8,99.8v0c0,55.1-44.7,99.8-99.8,99.8h0c-55.1,0-99.8-44.7-99.8-99.8v0
	C0.2,44.9,44.9,0.2,100,0.2z"/>
<g>
	<path class="st1" d="M64.4,87.8c-0.3-2-0.5-4-0.5-6c0-19.9,16.1-36,36-36s36,16.1,36,36c0,2-0.2,4-0.5,6
		c18.3,0.1,33.1,14.9,33.1,33.2c0,18.4-14.9,33.2-33.2,33.2c-9.3,0-17.7-3.8-23.7-9.9l0,0c-3.2-3.2-3.2-8.4,0.1-11.6
		c3.2-3.2,8.4-3.2,11.7,0c0.1,0.1,0.2,0.2,0.3,0.3c3,2.9,7.1,4.7,11.7,4.7c9.3,0,16.8-7.5,16.8-16.8s-7.5-16.8-16.8-16.8
		c-4.2,0-8.1,1.6-11.1,4.2l0,0l-0.3,0.3c-0.3,0.3-0.6,0.6-0.9,0.9l-0.6,0.6l0,0l-34,34l0,0c-6,6.2-14.4,10-23.8,10
		c-18.4,0-33.2-14.9-33.2-33.2C31.4,102.8,46.2,88,64.4,87.8L64.4,87.8z M64.7,137.9c9.3,0,16.8-7.5,16.8-16.8s-7.5-16.8-16.8-16.8
		s-16.8,7.5-16.8,16.8C47.9,130.4,55.4,137.9,64.7,137.9z M100,101.4c10.8,0,19.5-8.8,19.5-19.5c0-10.8-8.8-19.5-19.5-19.5
		S80.4,71,80.4,81.8C80.4,92.6,89.2,101.4,100,101.4z"/>
	<path class="st2" d="M119.4,83.9c0-0.3-0.1-0.6-0.1-0.9c0-4.6,3.7-8.3,8.3-8.3s8.3,3.7,8.3,8.3c0,0.4,0,0.7-0.1,1
		c-1.1,18.9-16.8,33.9-36,33.9s-34.8-15-36-33.9c0-0.3-0.1-0.7-0.1-1c0-4.6,3.7-8.3,8.3-8.3c4.6,0,8.3,3.7,8.3,8.3
		c0,0.3,0,0.6-0.1,0.9c1,9.8,9.3,17.5,19.4,17.5C110.1,101.4,118.4,93.7,119.4,83.9L119.4,83.9z"/>
</g>
</svg>
