<?xml version="1.0" encoding="utf-8"?>
<!-- Generator: Adobe Illustrator 24.0.1, SVG Export Plug-In . SVG Version: 6.00 Build 0)  -->
<svg version="1.1" id="图层_1" xmlns="http://www.w3.org/2000/svg" xmlns:xlink="http://www.w3.org/1999/xlink" x="0px" y="0px"
	 viewBox="0 0 200 200" style="enable-background:new 0 0 200 200;" xml:space="preserve">
<style type="text/css">
	.st0{fill:#769AFF;}
	.st1{fill:#FFFFFF;}
</style>
<path class="st0" d="M100,0.2L100,0.2c55.1,0,99.8,44.7,99.8,99.8v0c0,55.1-44.7,99.8-99.8,99.8h0c-55.1,0-99.8-44.7-99.8-99.8v0
	C0.2,44.9,44.9,0.2,100,0.2z"/>
<path class="st1" d="M93.7,125.6c1.5,1.5,3.6,2.4,5.8,2.4c0.1,0,0.2,0,0.3,0c0.1,0,0.2,0,0.3,0c2.2,0,4.3-0.9,5.8-2.4l45.5-45.5
	c3.2-3.2,3.2-8.4,0-11.7c-3.2-3.2-8.4-3.2-11.7,0l-31.7,31.7V45c0-4.6-3.7-8.3-8.3-8.3s-8.3,3.7-8.3,8.3v55.2L59.9,68.4
	c-3.2-3.2-8.4-3.2-11.7,0c-3.2,3.2-3.2,8.4,0,11.7L93.7,125.6z M149,133.5H49.7c-4.6,0-8.3,3.7-8.3,8.3s3.7,8.3,8.3,8.3H149
	c4.6,0,8.3-3.7,8.3-8.3S153.5,133.5,149,133.5z"/>
</svg>
