<?xml version="1.0" standalone="no"?><!DOCTYPE svg PUBLIC "-//W3C//DTD SVG 1.1//EN" "http://www.w3.org/Graphics/SVG/1.1/DTD/svg11.dtd"><svg t="1622364881320" class="icon" viewBox="0 0 1024 1024" version="1.1" xmlns="http://www.w3.org/2000/svg" p-id="27357" xmlns:xlink="http://www.w3.org/1999/xlink" width="200" height="200"><defs><style type="text/css"></style></defs><path d="M441.937 5.39c51.2-8.085 105.095-5.39 158.99 2.694 99.705 18.863 191.326 64.674 264.084 134.737 67.368 61.979 113.178 145.516 137.431 231.747 26.947 91.621 24.253 191.327-2.695 282.948-10.779 37.726-26.947 75.452-45.81 107.79-5.39 10.778-13.474 21.557-21.558 32.336 2.695-8.084 5.39-13.474 8.084-21.558 5.39-18.863 2.695-37.726-5.39-53.895-8.084-18.863-26.947-35.031-45.81-43.115-21.558-8.085-45.81-5.39-64.674 5.39-8.084 2.694-13.473 10.778-21.557 16.168 29.642-45.81 48.505-97.01 53.894-150.906 8.085-59.284-2.694-121.263-24.252-177.852-21.558-48.506-53.895-94.316-91.621-126.653-37.727-35.032-86.232-59.284-134.737-72.758-61.98-16.168-126.653-16.168-188.632 0-35.031 10.78-70.063 26.948-102.4 45.81-35.031 24.253-64.673 53.895-88.926 86.232 2.695-8.084 5.39-16.168 5.39-24.252 2.694-24.253-8.085-48.506-24.253-64.674-13.474-8.084-32.337-16.168-51.2-16.168-18.863-2.695-40.421 2.694-56.59 16.168l-10.779 10.779c24.253-37.726 53.895-70.063 86.232-99.705C250.61 61.979 344.926 18.863 441.937 5.389zM51.2 293.725c8.084-16.168 16.168-32.337 24.253-45.81 0 8.084-2.695 13.473-5.39 21.558-2.695 24.252 5.39 48.505 21.558 67.368 10.779 13.474 26.947 21.558 43.116 24.253 21.558 2.694 43.116 0 61.979-13.474 2.695-2.695 8.084-5.39 10.779-8.084-10.78 16.168-18.863 35.031-24.253 53.895-24.253 64.673-29.642 137.431-10.779 204.8 10.78 45.81 32.337 88.926 59.284 126.652 35.032 45.81 78.148 80.842 129.348 105.095 53.894 26.947 113.179 37.726 172.463 32.337 51.2-2.695 102.4-18.863 148.21-45.81 40.421-21.559 75.453-53.895 105.095-91.622 0 5.39-2.695 10.78-2.695 16.169-2.694 16.168-2.694 32.336 2.695 48.505 8.084 21.558 26.948 37.726 48.505 45.81 26.948 10.78 61.98 2.695 83.537-18.863 2.695-2.694 5.39-2.694 8.084-5.39-40.42 56.59-91.62 105.096-150.905 140.127-67.368 40.421-142.82 64.674-220.968 70.063-48.505 2.695-97.01 0-145.516-8.084-99.705-21.558-194.021-72.758-266.779-145.516C75.453 797.642 29.642 708.715 10.78 614.4 0 560.505-2.695 509.305 2.695 458.105c8.084-56.59 24.252-113.179 48.505-164.379z" fill="#38CEFF" p-id="27358"></path><path d="M99.705 215.579c16.169-13.474 37.727-21.558 59.284-18.863 18.864 2.695 37.727 10.779 48.506 24.252 16.168 16.169 26.947 40.421 24.252 64.674 0 8.084-2.694 16.169-5.39 24.253-5.389 10.779-10.778 18.863-18.862 26.947-2.695 2.695-8.084 5.39-10.78 8.084-16.168 13.474-40.42 18.863-61.978 13.474-16.169-2.695-32.337-10.779-43.116-24.253-16.168-16.168-24.253-43.115-21.558-67.368 0-8.084 2.695-13.474 5.39-21.558 2.694-8.084 8.084-13.474 13.473-18.863l10.78-10.78z m727.58 471.579c18.862-10.78 43.115-10.78 64.673-5.39 21.558 8.085 37.726 21.558 45.81 43.116 8.085 16.169 8.085 35.032 5.39 53.895-2.695 8.084-5.39 13.474-8.084 21.558-2.695 2.695-5.39 8.084-8.085 10.779-2.694 2.695-5.389 2.695-8.084 5.39-21.558 21.557-53.894 29.641-83.537 18.862-21.557-8.084-40.42-24.252-48.505-45.81-5.39-16.169-8.084-32.337-2.695-48.505 2.695-5.39 2.695-10.78 2.695-16.169l16.169-24.252c8.084-2.695 16.168-10.78 24.252-13.474z" fill="#0B99FF" p-id="27359"></path><path d="M363.79 282.947c21.557-18.863 51.2-24.252 78.147-13.473 10.779 2.694 21.558 10.779 32.337 18.863 67.368 45.81 132.042 88.926 199.41 132.042 10.78 8.084 21.558 16.168 32.337 21.558 16.168 8.084 29.642 24.252 35.032 40.42 5.39 16.17 8.084 37.727 0 53.896-5.39 16.168-18.864 32.336-32.337 40.42-16.169 8.085-29.642 18.864-43.116 26.948-67.368 45.81-137.432 91.621-204.8 137.432-16.168 10.779-37.726 16.168-56.59 13.473-21.557-2.694-40.42-16.168-51.2-32.337-13.473-18.863-16.168-40.42-10.778-61.978 5.39-18.864 16.168-37.727 32.336-48.506 51.2-35.031 102.4-67.368 153.6-102.4-45.81-32.337-94.315-61.979-140.126-94.316-5.39-5.389-13.474-8.084-18.863-13.473-16.168-13.474-26.947-32.337-29.642-53.895-5.39-21.558 5.39-48.505 24.252-64.674z" fill="#FF4A4A" p-id="27360"></path></svg>